<svg width="28" height="28" viewBox="0 0 28 28" fill="none" xmlns="http://www.w3.org/2000/svg">
<g clip-path="url(#clip0_692_308)">
<path d="M13.6998 0C6.13278 0 0 6.13278 0 13.6998C0 21.2667 6.13278 27.3995 13.6998 27.3995C21.2667 27.3995 27.3995 21.2667 27.3995 13.6998C27.3995 6.13278 21.2667 0 13.6998 0ZM14.0155 19.9877C12.2602 18.2539 10.5156 16.5093 8.78176 14.7593C8.14493 14.1225 8.15564 13.2395 8.79246 12.6027C10.5263 10.8635 12.2602 9.12425 13.9994 7.39573C14.5132 6.88199 15.1447 6.63582 15.8671 6.70004C17.89 6.77496 18.8479 9.41858 17.3655 10.7886C16.3915 11.7839 15.4497 12.699 14.449 13.6998C15.4871 14.6577 16.4504 15.6691 17.4458 16.6645C19.5489 18.9817 16.2952 22.1497 14.0101 19.9877H14.0155Z" fill="#F4E6CE"/>
</g>
<defs>
<clipPath id="clip0_692_308">
<rect width="27.3995" height="27.3995" fill="white"/>
</clipPath>
</defs>
</svg>
