<?xml version="1.0" encoding="UTF-8"?>
<svg id="Ebene_1" xmlns="http://www.w3.org/2000/svg" viewBox="0 0 388.19 380.84">
  <path d="M197.77,0h-7.35C137.84,0,90.23,21.31,55.77,55.77,21.31,90.23,0,137.83,0,190.42,0,295.58,85.26,380.84,190.42,380.84h7.35c52.58,0,100.19-21.31,134.65-55.77,34.46-34.46,55.77-82.07,55.77-134.65C388.19,85.25,302.94,0,197.77,0ZM269.79,198.63c-1.59,5.77-4.18,8.66-7.76,8.66h-50.46v51.06c0,3.58-2.89,6.17-8.66,7.76-2.79.8-5.68,1.2-8.66,1.2l-8.66-1.2c-5.78-1.59-8.66-4.18-8.66-7.76v-51.06h-50.77c-3.58,0-6.17-2.89-7.76-8.66-.8-2.99-1.19-5.87-1.19-8.66s.39-5.67,1.19-8.66c1.59-5.77,4.18-8.66,7.76-8.66h50.77v-50.17c0-3.58,2.88-6.17,8.66-7.76,2.78-.8,5.67-1.19,8.66-1.19l8.66,1.19c5.77,1.59,8.66,4.18,8.66,7.76v50.17h50.46c3.58,0,6.17,2.89,7.76,8.66.8,2.99,1.2,5.87,1.2,8.66s-.4,5.67-1.2,8.66Z"/>
</svg>